<?xml version="1.0" encoding="iso-8859-1"?>
<!-- Generator: Adobe Illustrator 19.0.0, SVG Export Plug-In . SVG Version: 6.00 Build 0)  -->
<svg xmlns="http://www.w3.org/2000/svg" xmlns:xlink="http://www.w3.org/1999/xlink" version="1.1" id="Capa_1" x="0px" y="0px" viewBox="0 0 512.001 512.001" style="enable-background:new 0 0 512.001 512.001;" xml:space="preserve">
<path style="fill:#C7CFE2;" d="M59.337,7.501c47.139,48.043,114.48,61.77,114.48,61.77s-13.468,137.266,148.15,301.985  l-26.937,27.453c0,0-67.341-68.633-134.681-137.266C25.667,124.177,59.337,7.501,59.337,7.501z"/>
<path style="fill:#AFB9D2;" d="M173.816,69.271c0,0-16.441-3.371-38.733-12.54C119.909,129.453,172.4,217.289,225.6,285.726  c2.227,2.865,2.266,6.82,0.067,9.707c-4.36,5.723-8.894,11.494-13.757,17.349c19.678,20.055,45.48,47.556,59.119,61.457  l10.03-10.222c3.195-3.256,8.491-3.157,11.606,0.176c10.861,11.62,14.97,15.664,17.966,18.614l11.334-11.552  C160.348,206.537,173.816,69.271,173.816,69.271z"/>
<path style="fill:#AA785F;" d="M323.526,372.846c26.571,27.081,99.451,101.359,99.451,101.359c3.719,3.791,3.719,9.936,0,13.727  l-13.468,13.726c-3.719,3.791-9.749,3.791-13.469,0l-99.707-101.62L323.526,372.846z"/>
<path style="fill:#96695A;" d="M319.516,407.498l-8.302,7.707l-14.881-15.167l27.192-27.192  c2.797,2.851,99.451,101.359,99.451,101.359c3.719,3.791,3.719,9.936,0,13.727l-13.468,13.726c-0.201,0.205-0.467,0.278-0.681,0.461  l0.98-0.424c3.719-3.791,3.719-9.936,0-13.727c0,0-46.649-47.544-78.906-80.419C327.782,404.368,322.668,404.347,319.516,407.498z"/>
<path style="fill:#C7CFE2;" d="M452.662,7.501c-47.139,48.043-114.48,61.77-114.48,61.77s13.468,137.266-148.15,301.985  l26.937,27.453c0,0,67.341-68.633,134.681-137.266C486.332,124.177,452.662,7.501,452.662,7.501z"/>
<path style="fill:#AFB9D2;" d="M376.916,56.731c-22.292,9.169-38.733,12.54-38.733,12.54s13.468,137.266-148.15,301.985  l11.334,11.552C218.886,365.556,402.824,180.89,376.916,56.731z"/>
<path style="fill:#AA785F;" d="M188.473,372.846c-26.571,27.081-99.451,101.359-99.451,101.359c-3.719,3.791-3.719,9.936,0,13.727  l13.468,13.726c3.719,3.791,9.749,3.791,13.469,0l99.707-101.62L188.473,372.846z"/>
<path style="fill:#96695A;" d="M193.317,406.997l7.467,8.208l14.881-15.167l-27.192-27.192  c-2.797,2.851-99.451,101.359-99.451,101.359c-3.719,3.791-3.719,9.936,0,13.727l13.468,13.726c0.201,0.205,0.467,0.278,0.681,0.461  l-1.998-2.036c-3.719-3.791-1.867-8.825,1.852-12.616c0,0,46.649-47.544,78.906-80.419  C185.052,403.867,190.166,403.846,193.317,406.997z"/>
<path d="M357.004,266.696c31.238-31.837,56.101-65.27,73.897-99.37c14.313-27.425,24.117-55.346,29.14-82.987  c8.632-47.511,0.19-77.656-0.173-78.917c-0.739-2.562-2.784-4.539-5.369-5.192c-2.587-0.655-5.324,0.116-7.191,2.019  C402.411,48.008,337.331,61.79,336.684,61.922c-3.755,0.766-6.327,4.252-5.967,8.067c1.094,11.602-0.313,44.768-13.465,87.254  c-12.271,39.637-37.682,96.868-90.212,161.463l-61.338-62.516c-67.847-69.149-91.18-132.551-98.807-173.563  c-4.675-25.142-4.286-46.445-2.68-60.191c38.653,34.021,85.142,48.384,101.839,52.698c-0.135,8.966,0.456,26.708,5.348,51.232  c6.483,32.504,22.147,83.825,59.952,143.729c2.21,3.502,6.841,4.551,10.346,2.34c3.503-2.211,4.55-6.843,2.34-10.346  c-36.359-57.613-51.485-106.781-57.771-137.882c-6.808-33.679-5.005-54.017-4.987-54.204c0.375-3.825-2.201-7.314-5.966-8.081  c-0.651-0.133-65.613-13.799-110.624-59.674c-1.867-1.903-4.605-2.673-7.19-2.019c-2.585,0.653-4.63,2.63-5.369,5.192  c-0.363,1.26-8.806,31.405-0.173,78.917c5.022,27.641,14.827,55.562,29.14,82.987c17.797,34.1,42.66,67.533,73.897,99.37  l62.397,63.595c-8.469,9.931-17.584,20.018-27.391,30.225l-21.551-21.965c-2.901-2.957-7.65-3.001-10.606-0.101  c-2.957,2.901-3.002,7.649-0.101,10.606l21.783,22.201l-70.302,71.651l-1.38-1.407c-2.901-2.958-7.65-3.002-10.606-0.101  c-2.957,2.901-3.002,7.649-0.101,10.606l1.58,1.61l-15.048,15.337c-6.555,6.681-6.555,17.551,0,24.232l13.468,13.727  c3.221,3.282,7.514,5.09,12.088,5.09s8.867-1.808,12.09-5.093l15.157-15.466c11.373,9.184,25.349,14.184,40.093,14.184  c17.292,0,33.544-6.856,45.758-19.305c23.378-23.826,24.988-61.551,4.854-87.307l56.867-57.959  c8.684,10.123,17.879,20.233,27.441,30.173l-16.398,16.712c-5.224-5.437-12.555-13.058-13.868-14.372  c-2.928-2.929-7.677-2.931-10.606-0.001c-2.929,2.928-2.93,7.677-0.001,10.606c1.189,1.189,8.34,8.621,14.256,14.779  c-20.183,25.757-18.588,63.522,4.808,87.368c12.215,12.448,28.465,19.304,45.758,19.304c14.741,0,28.715-4.997,40.086-14.179  l15.166,15.464c3.221,3.282,7.514,5.09,12.088,5.09s8.867-1.808,12.087-5.09l13.468-13.727c6.555-6.681,6.555-17.551,0-24.232  l-15.048-15.337l1.58-1.61c2.901-2.957,2.856-7.706-0.101-10.606c-2.955-2.9-7.705-2.856-10.606,0.101l-1.38,1.407l-70.302-71.651  l21.783-22.201c2.901-2.957,2.856-7.705-0.101-10.606c-2.956-2.901-7.704-2.855-10.606,0.101l-21.552,21.966  c-9.567-9.957-18.749-20.081-27.404-30.211L357.004,266.696z M417.623,479.459c0.857,0.873,0.857,2.348,0,3.221l-13.468,13.727  c-0.483,0.493-1.018,0.596-1.38,0.596c-0.364,0-0.898-0.103-1.38-0.594l-15.046-15.342l16.426-16.741L417.623,479.459z   M392.267,453.616l-16.424,16.739l-53.461-54.511c-2.901-2.958-7.649-3.003-10.606-0.103c-2.958,2.9-3.003,7.649-0.103,10.606  l53.29,54.336c-8.497,6.453-18.752,9.943-29.529,9.943c-13.232,0-25.681-5.26-35.051-14.81c-19.438-19.811-19.438-52.044,0-71.854  l21.583-21.997L392.267,453.616z M287.807,258.419c19.297-32.394,34.127-65.274,44.078-97.726  c13.005-42.416,14.267-72.821,14.066-85.559c16.704-4.316,63.186-18.68,101.833-52.695c1.607,13.752,1.995,35.053-2.679,60.19  c-7.627,41.011-30.96,104.413-98.807,173.563L216.969,388.001l-16.463-16.779C235.516,334.831,264.876,296.914,287.807,258.419z   M110.605,496.406c-0.483,0.493-1.018,0.596-1.38,0.596c-0.364,0-0.898-0.103-1.381-0.595L94.376,482.68  c-0.856-0.873-0.856-2.348,0-3.221l14.849-15.134l16.42,16.735L110.605,496.406z M211.616,475.816  c-9.371,9.55-21.819,14.81-35.051,14.81c-10.781,0-21.04-3.493-29.54-9.952l54.43-55.54c2.899-2.958,2.852-7.707-0.107-10.606  c-2.958-2.899-7.707-2.851-10.606,0.107l-54.597,55.71l-16.414-16.729l70.302-71.651l21.583,21.997  C231.053,423.772,231.053,456.006,211.616,475.816z"/>
<g>
</g>
<g>
</g>
<g>
</g>
<g>
</g>
<g>
</g>
<g>
</g>
<g>
</g>
<g>
</g>
<g>
</g>
<g>
</g>
<g>
</g>
<g>
</g>
<g>
</g>
<g>
</g>
<g>
</g>
</svg>
